HIERARCHY
ROOT Hips
{
	OFFSET 0.00000 0.00000 0.00000
	CHANNELS 6 Xposition Yposition Zposition Zrotation Yrotation Xrotation 
	JOINT LHipJoint
	{
		OFFSET 0 0 0
		CHANNELS 3 Zrotation Yrotation Xrotation
		JOINT LeftHip
		{
			OFFSET 1.26600 -1.82114 0.91038
			CHANNELS 3 Zrotation Yrotation Xrotation
			JOINT LeftKnee
			{
				OFFSET 2.50076 -6.87080 0.00000
				CHANNELS 3 Zrotation Yrotation Xrotation
				JOINT LeftAnkle
				{
					OFFSET 2.57364 -7.07102 0.00000
					CHANNELS 3 Zrotation Yrotation Xrotation
					JOINT LeftToe
					{
						OFFSET 0.13572 -0.37290 1.97004
						CHANNELS 3 Zrotation Yrotation Xrotation
						End Site
						{
							OFFSET 0.00000 -0.00000 1.01383
						}
					}
				}
			}
		}
	}
	JOINT RHipJoint
	{
		OFFSET 0 0 0
		CHANNELS 3 Zrotation Yrotation Xrotation
		JOINT RightHip
		{
			OFFSET -1.20803 -1.82114 0.91038
			CHANNELS 3 Zrotation Yrotation Xrotation
			JOINT RightKnee
			{
				OFFSET -2.54916 -7.00377 0.00000
				CHANNELS 3 Zrotation Yrotation Xrotation
				JOINT RightAnkle
				{
					OFFSET -2.56374 -7.04382 0.00000
					CHANNELS 3 Zrotation Yrotation Xrotation
					JOINT RightToe
					{
						OFFSET -0.23520 -0.64621 2.09921
						CHANNELS 3 Zrotation Yrotation Xrotation
						End Site
						{
							OFFSET -0.00000 -0.00000 1.10065
						}
					}
				}
			}
		}
	}
	JOINT lowerback
	{
		OFFSET 0 0 0
		CHANNELS 3 Zrotation Yrotation Xrotation
		JOINT Chest
		{
			OFFSET 0.05492 2.10797 -0.12074
			CHANNELS 3 Zrotation Yrotation Xrotation
			JOINT Chest2
			{
				OFFSET 0.04577 2.11592 -0.04483
				CHANNELS 3 Zrotation Yrotation Xrotation
				JOINT lowerneck
				{
					OFFSET 0 0 0
					CHANNELS 3 Zrotation Yrotation Xrotation
					JOINT Neck
					{
						OFFSET -0.10759 1.80167 0.15770
						CHANNELS 3 Zrotation Yrotation Xrotation
						JOINT Head
						{
							OFFSET 0.09237 1.77509 -0.40848
							CHANNELS 3 Zrotation Yrotation Xrotation
							End Site
							{
								OFFSET 0.03805 1.84093 -0.15754
							}
						}
					}
				}
				JOINT LeftCollar
				{
					OFFSET 0 0 0
					CHANNELS 3 Zrotation Yrotation Xrotation
					JOINT LeftShoulder
					{
						OFFSET 3.42372 1.09575 -0.28209
CHANNELS 3 Zrotation Xrotation Yrotation
						JOINT LeftElbow
						{
OFFSET 0 -4.956810 0.000000
CHANNELS 3 Zrotation Xrotation Yrotation
							JOINT LeftWrist
							{
OFFSET 0 -3.409150 0.000000
CHANNELS 3 Zrotation Xrotation Yrotation
								JOINT lhand
								{
									OFFSET 0 0 0
CHANNELS 3 Zrotation Xrotation Yrotation
									JOINT LFingers
									{
OFFSET 0 -0.616400 0.000000
CHANNELS 3 Zrotation Xrotation Yrotation
										End Site
										{
OFFSET 0 -0.496960 0.000000
										}
									}
								}
								JOINT LThumb
								{
OFFSET 0 0.000000 0.000000
CHANNELS 3 Zrotation Xrotation Yrotation
									End Site
									{
OFFSET 0 -0.504550 0.504550
									}
								}
							}
						}
					}
				}
				JOINT RightCollar
				{
					OFFSET 0 0 0
					CHANNELS 3 Zrotation Yrotation Xrotation
					JOINT RightShoulder
					{
						OFFSET -3.24731 1.15872 -0.32221
CHANNELS 3 Zrotation Xrotation Yrotation
						JOINT RightElbow
						{
OFFSET 0 -5.352000 0.000000
CHANNELS 3 Zrotation Xrotation Yrotation
							JOINT RightWrist
							{
OFFSET 0 -3.437210 -0.000000
CHANNELS 3 Zrotation Xrotation Yrotation
								JOINT rhand
								{
									OFFSET 0 0 0
CHANNELS 3 Zrotation Xrotation Yrotation
									JOINT RFingers
									{
OFFSET 0 -0.720090 0.000000
CHANNELS 3 Zrotation Xrotation Yrotation
										End Site
										{
OFFSET 0 -0.580560 0.000000
										}
									}
								}
								JOINT RThumb
								{
OFFSET 0 0.000000 0.000000
CHANNELS 3 Zrotation Xrotation Yrotation
									End Site
									{
OFFSET 0 -0.589420 0.589420
									}
								}
							}
						}
					}
				}
			}
		}
	}
}
MOTION
Frames: 5
Frame Time: 0.008333333333333333
-12.978100 17.482100 10.338900 -2.343900 -4.183900 2.109300 0.000000 0.000000 0.000000 -17.667800 0.543500 -9.472000 2.363700 9.585700 27.645200 0.969300 -6.347800 -17.564600 0.002000 -0.289300 -0.794800 0.000000 0.000000 0.000000 24.050100 2.495100 -9.235300 -2.973800 -10.652500 31.116800 -1.418200 6.419000 -21.324500 -0.604900 -4.978200 13.846500 0.423600 -1.733900 -2.428200 3.326100 -2.381600 0.174900 3.087800 -1.203300 1.665600 -9.306300 -3.203500 -14.192300 3.423100 -3.344800 35.593000 2.496300 -2.263000 15.002200 -0.000000 0.000000 0.000000 1.764800 3.728600 -31.269400 16.102900 -25.660000 3.690400 17.110500 8.071500 -18.825400 0.000000 0.000000 0.000000 -7.125000 0.000000 0.000000 -10.893400 49.300100 1.167600 -0.000000 0.000000 0.000000 -3.736300 0.767600 25.782500 -15.020900 -24.175200 -3.234500 -19.120400 -8.791400 -8.385300 0.000000 0.000000 0.000000 7.125000 0.000000 -0.000000 5.598400 21.130400 3.218900
-13.047223 17.474956 10.389300 -2.560405 -4.107324 2.222830 0.000000 0.000000 0.000000 -17.176859 0.575781 -9.568170 2.455946 9.757400 28.194583 1.006185 -6.354697 -17.899356 0.022455 -0.962808 -2.646552 0.000000 0.000000 0.000000 24.448860 2.148869 -9.100040 -2.918621 -10.562130 30.817145 -1.384239 6.885372 -21.045172 -0.707430 -5.375447 14.982710 1.313230 -1.454676 -2.856979 3.252266 -2.061272 0.549904 2.508816 -1.035147 2.241113 -7.940967 -1.910334 -15.295860 2.475017 -1.338975 36.878537 2.222562 -1.373729 15.680535 0.000000 0.000000 0.000000 1.525698 3.577772 -28.416015 14.679546 -23.697820 3.095983 18.049190 9.117720 -19.743509 0.000000 0.000000 0.000000 -7.125000 0.000000 0.000000 -10.298788 50.377545 1.377560 0.000000 0.000000 0.000000 -3.222696 0.566310 26.824766 -15.079693 -24.257011 -3.258582 -18.613963 -10.075548 -9.238296 0.000000 0.000000 0.000000 7.125000 0.000000 0.000000 5.961104 20.266120 3.545954
-13.144049 17.450005 10.427745 -3.366387 -3.460506 2.045545 0.000000 0.000000 0.000000 -15.891906 -0.168000 -9.994364 2.763552 10.302010 29.960512 1.053904 -6.016000 -18.330131 0.144308 -2.444001 -6.734723 0.000000 0.000000 0.000000 25.677264 1.322226 -8.586328 -2.820553 -10.398629 30.277628 -1.408345 7.438192 -21.224638 -0.541616 -4.714819 13.097021 2.374774 -1.196045 -2.268411 3.495198 -1.735986 0.652244 2.191532 -0.861382 1.981047 -7.985617 -1.275913 -14.112248 2.514845 -0.469557 36.343913 2.384540 -0.985412 15.071697 0.000000 0.000000 0.000000 1.268856 3.613406 -26.136519 13.556820 -22.097629 2.659171 18.440206 10.010795 -22.783408 0.000000 0.000000 0.000000 -7.125000 0.000000 0.000000 -11.055465 53.523067 2.339361 0.000000 0.000000 0.000000 -2.770422 1.063138 25.779244 -15.108722 -24.297276 -3.270548 -17.871314 -7.037142 -8.614303 0.000000 0.000000 0.000000 7.125000 0.000000 0.000000 6.498154 20.960985 3.767440
-13.287305 17.382478 10.446469 -4.703855 -2.291156 1.882822 0.000000 0.000000 0.000000 -13.826477 -1.349800 -12.158788 3.729948 11.791595 34.999215 1.074910 -4.781043 -18.585736 1.000442 -6.363053 -17.842305 0.000000 0.000000 0.000000 27.856329 1.010224 -7.465611 -2.596735 -10.011671 29.014480 -1.472410 6.866533 -21.722169 -0.658607 -5.189028 14.448810 3.520285 -0.979091 -1.406436 3.949038 -1.447756 0.898004 2.043968 -0.707671 1.728297 -7.106686 -1.239357 -15.448891 1.339669 -0.080715 37.658206 1.823673 -0.890327 16.020688 0.000000 0.000000 0.000000 1.360132 4.060733 -25.005954 13.451544 -21.945159 2.619610 17.592225 10.104872 -22.336876 0.000000 0.000000 0.000000 -7.125000 0.000000 0.000000 -11.720598 52.918999 2.309418 0.000000 0.000000 0.000000 -2.578595 0.641895 25.139001 -14.253169 -23.095298 -2.926760 -18.190401 -7.313475 -11.035731 0.000000 0.000000 0.000000 7.125000 0.000000 0.000000 6.267091 18.418980 3.990332
-13.399536 17.410179 10.456606 -6.906628 -0.622379 1.059805 0.000000 0.000000 0.000000 -10.282749 -3.147367 -17.831428 6.297779 14.708776 46.161624 0.479483 -6.395546 -12.436156 0.193935 -2.795303 -7.712221 0.000000 0.000000 0.000000 30.691659 -1.371474 -5.302119 -1.966151 -8.794565 25.155240 -1.256798 7.066120 -20.032483 -1.052077 -6.521463 18.305437 5.995679 -0.803131 0.276303 4.535708 -1.148739 1.394426 1.301824 -0.535368 1.260086 -7.718306 -1.541886 -15.236510 1.956352 -0.567835 37.543606 2.115163 -1.079918 15.946069 0.000000 0.000000 0.000000 1.471163 3.858772 -25.541618 13.447686 -21.939578 2.618194 18.452177 10.165216 -21.979330 0.000000 0.000000 0.000000 -7.125000 0.000000 0.000000 -10.719298 52.713176 2.052731 0.000000 0.000000 0.000000 -2.783550 0.484104 24.478758 -13.837247 -22.501564 -2.765505 -16.737487 -7.744773 -11.341280 0.000000 0.000000 0.000000 7.125000 0.000000 0.000000 7.288496 18.205892 4.684455
